<svg width="186" height="186" viewBox="0 0 186 186" fill="none" xmlns="http://www.w3.org/2000/svg">
<path d="M162.174 150.582C145.668 170.4 120.81 183 93 183C43.302 183 3 142.698 3 92.9999C3 68.1419 13.08 45.6419 29.352 29.3519" stroke="#2EB273" stroke-width="6" stroke-linecap="round" stroke-linejoin="round"/>
<path d="M27.2314 27.2296C26.0592 28.4006 26.0581 30.3 27.2291 31.4723C28.4 32.6445 30.2995 32.6455 31.4717 31.4746L27.2314 27.2296ZM159.868 148.662L157.948 150.968L162.559 154.807L164.479 152.502L159.868 148.662ZM31.4717 31.4746C47.2229 15.7408 68.9695 6.00012 92.9996 6.00012V0.00012207C67.3136 0.00012207 44.0602 10.4194 27.2314 27.2296L31.4717 31.4746ZM92.9996 6.00012C141.041 6.00012 180 44.959 180 93.0001H186C186 41.6453 144.354 0.00012207 92.9996 0.00012207V6.00012ZM180 93.0001C180 114.178 172.433 133.574 159.868 148.662L164.479 152.502C177.906 136.378 186 115.634 186 93.0001H180Z" fill="#1F4F82"/>
<path d="M162.174 150.582C145.668 170.4 120.81 183 93 183" stroke="#2EB273" stroke-width="6" stroke-linecap="round" stroke-linejoin="round"/>
</svg>
